<mxfile host="app.diagrams.net" agent="Mozilla/5.0 (Windows NT 10.0; Win64; x64) AppleWebKit/537.36 (KHTML, like Gecko) Chrome/127.0.0.0 Safari/537.36 Edg/127.0.0.0" version="24.7.6">
  <diagram name="第 1 页" id="CY98hoEXf1sjo3BoIsS-">
    <mxGraphModel dx="1213" dy="663" grid="1" gridSize="10" guides="1" tooltips="1" connect="1" arrows="1" fold="1" page="1" pageScale="1" pageWidth="827" pageHeight="1169" math="0" shadow="0">
      <root>
        <mxCell id="0" />
        <mxCell id="1" parent="0" />
        <mxCell id="Y_N7aWKUKOK6qSPNDNV6-5" value="&lt;p style=&quot;line-height: 100%; font-size: 25px;&quot;&gt;weihdkashdkhsakjda&lt;/p&gt;" style="rounded=1;whiteSpace=wrap;html=1;strokeWidth=2;fillWeight=4;hachureGap=8;hachureAngle=45;fillColor=#00bbe0;sketch=1;fillStyle=auto;gradientColor=none;fontFamily=Comic Sans MS;" vertex="1" parent="1">
          <mxGeometry x="200" y="310" width="260" height="100" as="geometry" />
        </mxCell>
      </root>
    </mxGraphModel>
  </diagram>
</mxfile>
